Exact Audio Copy V0.99 prebeta 4 from 23. January 2008

Отчёт EAC об извлечении, выполненном 31. января 2010, 21:03

Avril Lavigne / Let Go (Limited Edition) CD1

Дисковод: Optiarc DVD RW AD-7200S   Adapter: 3  ID: 0

Режим чтения                 : Достоверность
Использование точного потока : Да
Отключение кэша аудио        : Да
Использование указателей C2  : Нет

Коррекция смещения при чтении                     : 48
Способность читать области Lead-in и Lead-out     : Нет
Заполнение пропущенных сэмплов тишиной            : Да
Удаление блоков с тишиной в начале и конце        : Нет
При вычислениях CRC использовались нулевые сэмплы : Да
Интерфейс                                         : Встроенный Win32-интерфейс для Win NT/2000
Обработка зазоров                                 : Добавлено к предыдущему треку

Выходной формат          : Пользовательский кодировщик
Выбранный битрейт        : 1024 kBit/s
Качество                 : Высокий
Добавление ID3-тэга      : Нет
Утилита сжатия           : C:\Program Files\FLAC\flac.exe
Дополнительные параметры : -8 -V -T "ARTIST=%a" -T "TITLE=%t" -T "ALBUM=%g" -T "DATE=%y" -T "TRACKNUMBER=%n" -T "GENRE=%m" -T "COMMENT=EAC Test & Copy" %s


TOC извлечённого CD

     Трек |   Старт  | Длительность | Начальный сектор | Конечный сектор 
    ---------------------------------------------------------------------
       1  |  0:00.00 |    3:53.57   |           0      |      17531      
       2  |  3:53.57 |    4:04.38   |       17532      |      35869      
       3  |  7:58.20 |    3:24.00   |       35870      |      51169      
       4  | 11:22.20 |    3:43.05   |       51170      |      67899      
       5  | 15:05.25 |    3:31.70   |       67900      |      83794      
       6  | 18:37.20 |    3:41.02   |       83795      |     100371      
       7  | 22:18.22 |    3:48.63   |      100372      |     117534      
       8  | 26:07.10 |    4:11.37   |      117535      |     136396      
       9  | 30:18.47 |    3:43.65   |      136397      |     153186      
      10  | 34:02.37 |    3:27.20   |      153187      |     168731      
      11  | 37:29.57 |    3:57.25   |      168732      |     186531      
      12  | 41:27.07 |    3:45.30   |      186532      |     203436      
      13  | 45:12.37 |    3:28.55   |      203437      |     219091      
      14  | 51:13.17 |   19:52.39   |      230492      |     319930      


Трек  1

     Имя файла E:\01._Losing_Grip.wav

     Длина предзазора  0:00:02.00

     Пиковый уровень 100.0 %
     Качество трека 99.9 %
     CRC теста 31CEAA08
     CRC копии 31CEAA08
     Точное извлечение (достоверность 19)  [5DBE006D]
     Копирование... OK

Трек  2

     Имя файла E:\02._Complicated.wav

     Пиковый уровень 100.0 %
     Качество трека 100.0 %
     CRC теста D003CCB2
     CRC копии D003CCB2
     Точное извлечение (достоверность 20)  [430D5B0B]
     Копирование... OK

Трек  3

     Имя файла E:\03._Sk8er_Boi.wav

     Пиковый уровень 100.0 %
     Качество трека 100.0 %
     CRC теста A64E9421
     CRC копии A64E9421
     Точное извлечение (достоверность 20)  [9274B827]
     Копирование... OK

Трек  4

     Имя файла E:\04._I'm_With_You.wav

     Пиковый уровень 100.0 %
     Качество трека 100.0 %
     CRC теста A2CDBBF1
     CRC копии A2CDBBF1
     Точное извлечение (достоверность 19)  [1341B558]
     Копирование... OK

Трек  5

     Имя файла E:\05._Mobile.wav

     Пиковый уровень 100.0 %
     Качество трека 99.8 %
     CRC теста 8B5EBDD2
     CRC копии 8B5EBDD2
     Точность не определена (достоверность 119)  [A645C5A6], AccurateRip вернул [1DDA1EF7]
     Копирование... OK

Трек  6

     Имя файла E:\06._Unwanted.wav

     Пиковый уровень 100.0 %
     Качество трека 100.0 %
     CRC теста 249E2AF7
     CRC копии 249E2AF7
     Точное извлечение (достоверность 19)  [BD1983F0]
     Копирование... OK

Трек  7

     Имя файла E:\07._Tomorrow.wav

     Пиковый уровень 100.0 %
     Качество трека 100.0 %
     CRC теста A280A764
     CRC копии A280A764
     Точное извлечение (достоверность 19)  [A5AC7FF0]
     Копирование... OK

Трек  8

     Имя файла E:\08._Anything_But_Ordinary.wav

     Пиковый уровень 100.0 %
     Качество трека 100.0 %
     CRC теста B4FE6854
     CRC копии B4FE6854
     Точное извлечение (достоверность 19)  [D66E26F1]
     Копирование... OK

Трек  9

     Имя файла E:\09._Things_I'll_Never_Say.wav

     Пиковый уровень 100.0 %
     Качество трека 100.0 %
     CRC теста 33FEF26B
     CRC копии 33FEF26B
     Точное извлечение (достоверность 19)  [8407F558]
     Копирование... OK

Трек 10

     Имя файла E:\10._My_World.wav

     Пиковый уровень 99.8 %
     Качество трека 100.0 %
     CRC теста A718BB47
     CRC копии A718BB47
     Точное извлечение (достоверность 19)  [8681C310]
     Копирование... OK

Трек 11

     Имя файла E:\11._Nobody's_Fool.wav

     Пиковый уровень 100.0 %
     Качество трека 100.0 %
     CRC теста 99AB1E6A
     CRC копии 99AB1E6A
     Точное извлечение (достоверность 19)  [470F983C]
     Копирование... OK

Трек 12

     Имя файла E:\12._Too_Much_to_Ask.wav

     Пиковый уровень 99.8 %
     Качество трека 100.0 %
     CRC теста E9135BCD
     CRC копии E9135BCD
     Точное извлечение (достоверность 19)  [EBD88D67]
     Копирование... OK

Трек 13

     Имя файла E:\13._Naked.wav

     Пиковый уровень 99.7 %
     Качество трека 100.0 %
     CRC теста 6A9E7CB6
     CRC копии 6A9E7CB6
     Точное извлечение (достоверность 19)  [D84A9732]
     Копирование... OK


12 трек(и) скопированы точно
 1 трек(и) не удалось проверить на точность

Некоторые треки не прошли проверку на точность

Ошибок не произошло

Конец отчёта
